<svg width="846" height="351" viewBox="0 0 846 351" fill="none" xmlns="http://www.w3.org/2000/svg">
<path fill-rule="evenodd" clip-rule="evenodd" d="M11.3623 64.5736C3.67779 66.4958 -1.18754 74.0618 0.251938 81.8511L5.32022 109.277C6.7728 117.137 14.134 122.477 22.0569 121.419L99.2333 111.107L125.875 337.561C126.764 345.115 133.166 350.808 140.772 350.808H149.215C156.763 350.808 163.135 345.2 164.094 337.713L194.739 98.347L283.788 86.4494C292.291 85.3134 298.111 77.291 296.552 68.8557L286.096 12.2785C284.524 3.77052 276.1 -1.64683 267.706 0.452668L204.978 16.1434C204.46 8.44972 198.046 2.17565 190.009 2.17565H103.286C94.3071 2.17565 87.3396 10.0109 88.3887 18.9283L91.4033 44.5524L11.3623 64.5736Z" fill="url(#paint0_linear)"/>
<path d="M239.027 260.737C238.882 261.607 238.519 263.347 237.937 265.956C237.501 268.421 236.266 270.161 234.231 271.176C232.342 272.191 229.29 272.698 225.075 272.698C220.278 272.698 216.79 272.191 214.61 271.176C212.43 270.161 211.34 267.986 211.34 264.652L221.804 223.114C227.618 199.192 231.47 183.968 233.359 177.444L227.909 170.92C227.473 170.485 227.255 169.977 227.255 169.398C227.255 167.948 228.853 166.788 232.051 165.918C235.249 164.903 239.681 164.396 245.35 164.396C250.437 164.396 253.852 165.845 255.596 168.745C257.34 171.5 258.43 175.124 258.867 179.619L257.34 185.273C261.991 179.619 267.369 174.979 273.473 171.355C279.723 167.585 285.246 165.7 290.042 165.7C296.292 165.7 301.161 166.788 304.649 168.963C308.137 171.137 309.881 173.965 309.881 177.444C309.881 180.489 308.791 183.678 306.611 187.013C304.576 190.203 301.96 192.957 298.763 195.277C295.565 197.452 292.44 198.684 289.388 198.974C286.481 198.974 284.519 198.612 283.502 197.887C282.484 197.162 281.976 196.074 281.976 194.625L283.284 187.448C271.657 190.638 261.119 198.322 251.672 210.5L239.027 260.737Z" fill="url(#paint1_linear)"/>
<path d="M386.438 257.692C386.728 261.462 387.237 264.869 387.964 267.914C387.673 268.784 386.365 269.653 384.04 270.523C381.859 271.393 379.97 271.828 378.371 271.828C373.139 271.828 369.36 271.031 367.035 269.436C364.855 267.986 363.764 265.739 363.764 262.694C363.764 259.795 364.055 256.895 364.637 253.995C361.439 258.345 356.715 261.969 350.466 264.869C344.361 267.624 339.42 269.001 335.641 269.001C325.903 269.001 317.764 266.174 311.224 260.52C304.828 254.865 301.631 245.804 301.631 233.335C301.631 221.592 304.392 210.573 309.915 200.279C315.584 189.84 323.36 181.504 333.243 175.269C343.126 168.89 354.099 165.7 366.163 165.7C368.488 165.7 371.54 166.353 375.319 167.658C379.098 168.818 382.877 170.92 386.656 173.965C390.58 176.864 393.85 180.634 396.466 185.273C397.629 185.273 399.01 185.853 400.609 187.013C402.207 188.173 403.007 189.333 403.007 190.493C403.007 191.797 402.789 193.102 402.353 194.407L386.438 257.692ZM376.627 196.799C375.755 193.61 374.011 190.928 371.395 188.753C368.924 186.578 366.671 185.491 364.637 185.491C357.951 185.491 351.628 187.883 345.669 192.667C339.856 197.307 335.132 203.106 331.499 210.065C327.865 217.025 326.048 223.621 326.048 229.856C326.048 235.945 326.775 240.947 328.228 244.861C329.682 248.776 332.516 250.733 336.731 250.733C340.364 250.733 344.507 249.646 349.158 247.471C353.954 245.296 358.169 242.397 361.802 238.772C365.581 235.002 368.052 231.088 369.215 227.028L376.627 196.799Z" fill="url(#paint2_linear)"/>
<path d="M500.012 249.211C497.396 256.605 492.236 262.549 484.533 267.044C476.83 271.393 466.075 273.568 452.267 273.568C442.675 273.568 434.754 271.901 428.504 268.566C422.254 265.231 417.676 260.882 414.769 255.518C411.862 250.153 410.409 244.354 410.409 238.12C410.409 224.201 413.17 211.805 418.693 200.931C424.216 189.913 431.992 181.359 442.021 175.269C452.195 169.035 463.967 165.918 477.339 165.918C485.768 165.918 493.035 168.383 499.14 173.312C505.244 178.242 508.296 184.766 508.296 192.885C508.296 196.074 507.134 198.757 504.808 200.931C502.628 202.961 499.431 203.976 495.216 203.976C491.727 203.976 489.257 203.106 487.803 201.366C486.35 199.482 485.623 197.307 485.623 194.842C485.623 191.652 484.533 189.115 482.353 187.23C480.173 185.346 477.411 184.403 474.068 184.403C469.708 184.403 464.476 186.723 458.372 191.363C452.413 196.002 447.253 202.454 442.893 210.718C438.678 218.837 436.57 227.971 436.57 238.12C436.57 242.614 438.242 246.456 441.585 249.646C444.927 252.835 449.578 254.43 455.537 254.43C460.479 254.43 464.476 253.488 467.528 251.603C470.58 249.718 473.85 247.036 477.339 243.556C479.519 241.382 481.335 239.787 482.789 238.772C484.242 237.757 485.768 237.25 487.367 237.25C490.855 237.25 493.69 238.265 495.87 240.294C498.05 242.179 499.431 245.151 500.012 249.211Z" fill="url(#paint3_linear)"/>
<path d="M574.141 221.374C575.885 226.303 581.626 232.828 591.364 240.947C601.247 248.921 611.785 256.677 622.976 264.217C622.976 266.826 621.304 269.726 617.962 272.916C614.764 276.25 611.857 277.918 609.241 277.918C606.916 277.918 605.099 277.628 603.791 277.048C600.303 275.743 594.998 272.336 587.876 266.826C580.754 261.172 573.923 254.865 567.383 247.906C560.842 240.947 556.337 234.64 553.866 228.986C550.232 244.789 547.616 255.518 546.018 261.172C544.564 266.826 543.401 270.378 542.529 271.828C541.657 273.278 540.422 274.003 538.823 274.003L533.373 274.22C523.926 274.22 518.839 270.378 518.112 262.694C520.583 256.605 522.545 250.733 523.998 245.079C538.242 188.825 548.416 145.91 554.52 116.334C554.665 111.114 555.61 107.635 557.354 105.895C559.244 104.155 562.368 103.285 566.729 103.285C570.362 103.285 573.56 104.445 576.321 106.765C579.083 109.084 580.463 111.912 580.463 115.246C580.463 115.971 580.318 117.059 580.027 118.508L558.88 207.238C562.805 202.599 569.636 196.509 579.373 188.97C589.257 181.431 596.887 176.429 602.265 173.965C603.137 173.965 606.116 174.689 611.203 176.139C616.435 177.444 619.488 178.749 620.36 180.054C620.65 180.489 620.941 182.011 621.232 184.621C620.941 188.1 620.578 190.058 620.142 190.493C617.962 191.797 613.311 194.697 606.189 199.192C599.067 203.541 592.091 208.036 585.26 212.675C578.429 217.17 574.723 220.069 574.141 221.374Z" fill="url(#paint4_linear)"/>
<path d="M676.879 273.568C662.636 273.568 652.244 270.741 645.704 265.087C639.163 259.432 635.893 251.893 635.893 242.469C635.893 228.696 639.309 215.937 646.14 204.194C653.116 192.45 662.345 183.171 673.827 176.357C685.455 169.398 697.954 165.918 711.325 165.918C719.464 165.918 726.296 168.238 731.818 172.877C737.341 177.372 740.103 184.041 740.103 192.885C740.103 202.744 736.397 210.573 728.984 216.372C721.717 222.026 712.488 226.231 701.297 228.986C690.251 231.595 676.952 233.625 661.401 235.075C660.819 237.25 660.528 239.497 660.528 241.817C660.528 245.876 662.2 248.993 665.543 251.168C669.031 253.343 673.9 254.43 680.15 254.43C684.801 254.43 690.105 253.488 696.064 251.603C702.169 249.718 706.82 246.601 710.017 242.252C711.761 239.787 713.941 237.83 716.558 236.38C719.319 234.93 721.935 234.205 724.406 234.205C726.732 234.205 728.621 235.002 730.074 236.597C731.528 238.047 732.255 240.294 732.255 243.339C730.51 247.978 727.095 252.69 722.008 257.475C716.921 262.114 710.453 265.956 702.605 269.001C694.756 272.046 686.181 273.568 676.879 273.568ZM667.505 215.067C672.592 214.922 678.987 214.125 686.69 212.675C694.393 211.225 701.369 208.688 707.619 205.063C713.869 201.294 716.994 196.364 716.994 190.275C716.994 188.535 716.049 187.158 714.159 186.143C712.27 184.983 710.235 184.403 708.055 184.403C703.695 184.403 698.681 186.071 693.012 189.405C687.489 192.74 682.33 196.799 677.533 201.584C672.737 206.368 669.394 210.863 667.505 215.067Z" fill="url(#paint5_linear)"/>
<path d="M774.477 260.737C774.332 261.607 773.969 263.347 773.387 265.956C772.951 268.421 771.716 270.161 769.681 271.176C767.792 272.191 764.739 272.698 760.525 272.698C755.728 272.698 752.24 272.191 750.06 271.176C747.88 270.161 746.79 267.986 746.79 264.652L757.254 223.114C763.068 199.192 766.92 183.968 768.809 177.444L763.359 170.92C762.923 170.485 762.705 169.977 762.705 169.398C762.705 167.948 764.303 166.788 767.501 165.918C770.698 164.903 775.131 164.396 780.8 164.396C785.887 164.396 789.302 165.845 791.046 168.745C792.79 171.5 793.88 175.124 794.316 179.619L792.79 185.273C797.441 179.619 802.819 174.979 808.923 171.355C815.173 167.585 820.696 165.7 825.492 165.7C831.742 165.7 836.611 166.788 840.099 168.963C843.587 171.137 845.331 173.965 845.331 177.444C845.331 180.489 844.241 183.678 842.061 187.013C840.026 190.203 837.41 192.957 834.213 195.277C831.015 197.452 827.89 198.684 824.838 198.974C821.931 198.974 819.969 198.612 818.952 197.887C817.934 197.162 817.426 196.074 817.426 194.625L818.734 187.448C807.106 190.638 796.569 198.322 787.122 210.5L774.477 260.737Z" fill="url(#paint6_linear)"/>
<defs>
<linearGradient id="paint0_linear" x1="269.318" y1="1.24193e-05" x2="104.71" y2="345.183" gradientUnits="userSpaceOnUse">
<stop stop-color="#F733A9"/>
<stop offset="1" stop-color="#F55806"/>
</linearGradient>
<linearGradient id="paint1_linear" x1="835.814" y1="18.4148" x2="204.457" y2="170.786" gradientUnits="userSpaceOnUse">
<stop stop-color="#F734A7"/>
<stop offset="1" stop-color="#F55513"/>
</linearGradient>
<linearGradient id="paint2_linear" x1="835.814" y1="18.4148" x2="204.457" y2="170.786" gradientUnits="userSpaceOnUse">
<stop stop-color="#F734A7"/>
<stop offset="1" stop-color="#F55513"/>
</linearGradient>
<linearGradient id="paint3_linear" x1="835.814" y1="18.4148" x2="204.457" y2="170.786" gradientUnits="userSpaceOnUse">
<stop stop-color="#F734A7"/>
<stop offset="1" stop-color="#F55513"/>
</linearGradient>
<linearGradient id="paint4_linear" x1="835.814" y1="18.4148" x2="204.457" y2="170.786" gradientUnits="userSpaceOnUse">
<stop stop-color="#F734A7"/>
<stop offset="1" stop-color="#F55513"/>
</linearGradient>
<linearGradient id="paint5_linear" x1="835.814" y1="18.4148" x2="204.457" y2="170.786" gradientUnits="userSpaceOnUse">
<stop stop-color="#F734A7"/>
<stop offset="1" stop-color="#F55513"/>
</linearGradient>
<linearGradient id="paint6_linear" x1="835.814" y1="18.4148" x2="204.457" y2="170.786" gradientUnits="userSpaceOnUse">
<stop stop-color="#F734A7"/>
<stop offset="1" stop-color="#F55513"/>
</linearGradient>
</defs>
</svg>
